<?xml version='1.0' encoding='utf-8'?>
<svg xmlns="http://www.w3.org/2000/svg" width="800" height="200" viewBox="0 0 800 200" font-family="-apple-system, &quot;PingFang SC&quot;, &quot;Microsoft YaHei&quot;, sans-serif">
  <rect width="800" height="200" fill="#fff" rx="8" />
  <defs>
    <marker id="ah" markerWidth="8" markerHeight="6" refX="8" refY="3" orient="auto">
      <polygon points="0 0, 8 3, 0 6" fill="#94A3B8" />
    </marker>
    <marker id="ag" markerWidth="8" markerHeight="6" refX="8" refY="3" orient="auto">
      <polygon points="0 0, 8 3, 0 6" fill="#16A34A" />
    </marker>
    <marker id="ar" markerWidth="8" markerHeight="6" refX="8" refY="3" orient="auto">
      <polygon points="0 0, 8 3, 0 6" fill="#DC2626" />
    </marker>
  </defs>
  <rect x="30" y="75" width="100" height="40" rx="8" fill="#F0F9FF" stroke="#3B82F6" stroke-width="1.5" />
  <text x="80.0" y="95.0" text-anchor="middle" dominant-baseline="central" font-size="11" fill="#333" font-weight="500">交易发起</text>
  <rect x="180" y="75" width="120" height="40" rx="8" fill="#FFF7ED" stroke="#EA580C" stroke-width="1.5" />
  <text x="240.0" y="95.0" text-anchor="middle" dominant-baseline="central" font-size="11" fill="#333" font-weight="500">NUSDpay风控</text>
  <rect x="350" y="75" width="110" height="40" rx="8" fill="#F5F3FF" stroke="#7C3AED" stroke-width="1.5" />
  <text x="405.0" y="95.0" text-anchor="middle" dominant-baseline="central" font-size="11" fill="#333" font-weight="500">风控审核</text>
  <rect x="510" y="20" width="100" height="36" rx="8" fill="#F0FDF4" stroke="#16A34A" stroke-width="1.5" />
  <text x="560.0" y="38.0" text-anchor="middle" dominant-baseline="central" font-size="11" fill="#333" font-weight="500">自动放行 ✅</text>
  <rect x="510" y="80" width="100" height="36" rx="8" fill="#FFFBEB" stroke="#D97706" stroke-width="1.5" />
  <text x="560.0" y="98.0" text-anchor="middle" dominant-baseline="central" font-size="11" fill="#333" font-weight="500">人工审核</text>
  <rect x="510" y="140" width="100" height="36" rx="8" fill="#FEF2F2" stroke="#DC2626" stroke-width="1.5" />
  <text x="560.0" y="158.0" text-anchor="middle" dominant-baseline="central" font-size="11" fill="#333" font-weight="500">自动拦截 ❌</text>
  <rect x="670" y="50" width="90" height="36" rx="8" fill="#F0FDF4" stroke="#16A34A" stroke-width="1.5" />
  <text x="715.0" y="68.0" text-anchor="middle" dominant-baseline="central" font-size="11" fill="#333" font-weight="500">通过</text>
  <rect x="670" y="115" width="90" height="36" rx="8" fill="#FEF2F2" stroke="#DC2626" stroke-width="1.5" />
  <text x="715.0" y="133.0" text-anchor="middle" dominant-baseline="central" font-size="11" fill="#333" font-weight="500">拒绝</text>
  <line x1="130" y1="95" x2="178" y2="95" stroke="#94A3B8" stroke-width="1.5" marker-end="url(#ah)" />
  <line x1="300" y1="95" x2="348" y2="95" stroke="#94A3B8" stroke-width="1.5" marker-end="url(#ah)" />
  <line x1="460" y1="85" x2="508" y2="38" stroke="#94A3B8" stroke-width="1.5" marker-end="url(#ah)" />
  <text x="490" y="55" text-anchor="middle" font-size="10" fill="#64748B">Low</text>
  <line x1="460" y1="95" x2="508" y2="98" stroke="#94A3B8" stroke-width="1.5" marker-end="url(#ah)" />
  <text x="490" y="88" text-anchor="middle" font-size="10" fill="#64748B">Medium</text>
  <line x1="460" y1="105" x2="508" y2="158" stroke="#94A3B8" stroke-width="1.5" marker-end="url(#ah)" />
  <text x="490" y="135" text-anchor="middle" font-size="10" fill="#64748B">High</text>
  <line x1="610" y1="98" x2="668" y2="68" stroke="#94A3B8" stroke-width="1.5" marker-end="url(#ah)" />
  <text x="645" y="75" text-anchor="middle" font-size="10" fill="#64748B">通过</text>
  <line x1="610" y1="98" x2="668" y2="133" stroke="#94A3B8" stroke-width="1.5" marker-end="url(#ah)" />
  <text x="645" y="120" text-anchor="middle" font-size="10" fill="#64748B">拒绝</text>
</svg>