<?xml version='1.0' encoding='utf-8'?>
<svg xmlns="http://www.w3.org/2000/svg" width="900" height="340" viewBox="0 0 900 340" font-family="-apple-system, &quot;PingFang SC&quot;, &quot;Microsoft YaHei&quot;, sans-serif">
  <rect width="900" height="340" fill="#fff" rx="8" />
  <defs>
    <marker id="ah" markerWidth="8" markerHeight="6" refX="8" refY="3" orient="auto">
      <polygon points="0 0, 8 3, 0 6" fill="#94A3B8" />
    </marker>
    <marker id="ag" markerWidth="8" markerHeight="6" refX="8" refY="3" orient="auto">
      <polygon points="0 0, 8 3, 0 6" fill="#16A34A" />
    </marker>
    <marker id="ar" markerWidth="8" markerHeight="6" refX="8" refY="3" orient="auto">
      <polygon points="0 0, 8 3, 0 6" fill="#DC2626" />
    </marker>
  </defs>
  <rect x="10" y="10" width="100" height="30" rx="8" fill="#F8FAFC" stroke="#CBD5E1" stroke-width="1.5" />
  <text x="60.0" y="25.0" text-anchor="middle" dominant-baseline="central" font-size="12" fill="#333" font-weight="500">终端用户</text>
  <rect x="220" y="10" width="100" height="30" rx="8" fill="#F8FAFC" stroke="#CBD5E1" stroke-width="1.5" />
  <text x="270.0" y="25.0" text-anchor="middle" dominant-baseline="central" font-size="12" fill="#333" font-weight="500">商户系统</text>
  <rect x="450" y="10" width="100" height="30" rx="8" fill="#F8FAFC" stroke="#CBD5E1" stroke-width="1.5" />
  <text x="500.0" y="25.0" text-anchor="middle" dominant-baseline="central" font-size="12" fill="#333" font-weight="500">NUSDpay</text>
  <rect x="680" y="10" width="100" height="30" rx="8" fill="#F8FAFC" stroke="#CBD5E1" stroke-width="1.5" />
  <text x="730.0" y="25.0" text-anchor="middle" dominant-baseline="central" font-size="12" fill="#333" font-weight="500">区块链</text>
  <line x1="60" y1="45" x2="60" y2="330" stroke="#E2E8F0" stroke-width="1" stroke-dasharray="4" />
  <line x1="270" y1="45" x2="270" y2="330" stroke="#E2E8F0" stroke-width="1" stroke-dasharray="4" />
  <line x1="500" y1="45" x2="500" y2="330" stroke="#E2E8F0" stroke-width="1" stroke-dasharray="4" />
  <line x1="730" y1="45" x2="730" y2="330" stroke="#E2E8F0" stroke-width="1" stroke-dasharray="4" />
  <line x1="270" y1="65" x2="500" y2="65" stroke="#94A3B8" stroke-width="1.5" marker-end="url(#ah)" />
  <text x="385.0" y="60" text-anchor="middle" font-size="10" fill="#64748B">调用API获取收款地址</text>
  <line x1="500" y1="95" x2="270" y2="95" stroke="#94A3B8" stroke-width="1.5" marker-end="url(#ah)" />
  <text x="385.0" y="90" text-anchor="middle" font-size="10" fill="#64748B">返回专属地址</text>
  <line x1="270" y1="125" x2="60" y2="125" stroke="#94A3B8" stroke-width="1.5" marker-end="url(#ah)" />
  <text x="165.0" y="120" text-anchor="middle" font-size="10" fill="#64748B">展示收款地址</text>
  <line x1="60" y1="155" x2="730" y2="155" stroke="#94A3B8" stroke-width="1.5" marker-end="url(#ah)" />
  <text x="395.0" y="150" text-anchor="middle" font-size="10" fill="#64748B">链上转账</text>
  <line x1="730" y1="185" x2="500" y2="185" stroke="#94A3B8" stroke-width="1.5" marker-end="url(#ah)" />
  <text x="615.0" y="180" text-anchor="middle" font-size="10" fill="#64748B">交易被检测</text>
  <rect x="440" y="205" width="120" height="22" rx="8" fill="#F0FDF4" stroke="#16A34A" stroke-width="1.5" />
  <text x="500.0" y="216.0" text-anchor="middle" dominant-baseline="central" font-size="10" fill="#333" font-weight="500">等待区块确认</text>
  <rect x="440" y="235" width="120" height="22" rx="8" fill="#F0FDF4" stroke="#16A34A" stroke-width="1.5" />
  <text x="500.0" y="246.0" text-anchor="middle" dominant-baseline="central" font-size="10" fill="#333" font-weight="500">确认入账(扣费+换算)</text>
  <line x1="500" y1="275" x2="270" y2="275" stroke="#94A3B8" stroke-width="1.5" marker-end="url(#ah)" />
  <text x="385.0" y="270" text-anchor="middle" font-size="10" fill="#64748B">Webhook回调</text>
  <line x1="270" y1="305" x2="60" y2="305" stroke="#94A3B8" stroke-width="1.5" marker-end="url(#ah)" />
  <text x="165.0" y="300" text-anchor="middle" font-size="10" fill="#64748B">支付成功</text>
</svg>