<?xml version='1.0' encoding='utf-8'?>
<svg xmlns="http://www.w3.org/2000/svg" width="960" height="380" viewBox="0 0 960 380" font-family="-apple-system, &quot;PingFang SC&quot;, &quot;Microsoft YaHei&quot;, sans-serif">
  <rect width="960" height="380" fill="#fff" rx="8" />
  <defs>
    <marker id="ah" markerWidth="8" markerHeight="6" refX="8" refY="3" orient="auto">
      <polygon points="0 0, 8 3, 0 6" fill="#94A3B8" />
    </marker>
    <marker id="ag" markerWidth="8" markerHeight="6" refX="8" refY="3" orient="auto">
      <polygon points="0 0, 8 3, 0 6" fill="#16A34A" />
    </marker>
    <marker id="ar" markerWidth="8" markerHeight="6" refX="8" refY="3" orient="auto">
      <polygon points="0 0, 8 3, 0 6" fill="#DC2626" />
    </marker>
  </defs>
  <rect x="5" y="10" width="110" height="30" rx="8" fill="#F8FAFC" stroke="#CBD5E1" stroke-width="1.5" />
  <text x="60.0" y="25.0" text-anchor="middle" dominant-baseline="central" font-size="11" fill="#333" font-weight="500">商户系统</text>
  <rect x="175" y="10" width="110" height="30" rx="8" fill="#F8FAFC" stroke="#CBD5E1" stroke-width="1.5" />
  <text x="230.0" y="25.0" text-anchor="middle" dominant-baseline="central" font-size="11" fill="#333" font-weight="500">NUSDpay</text>
  <rect x="365" y="10" width="110" height="30" rx="8" fill="#F8FAFC" stroke="#CBD5E1" stroke-width="1.5" />
  <text x="420.0" y="25.0" text-anchor="middle" dominant-baseline="central" font-size="11" fill="#333" font-weight="500">风控引擎</text>
  <rect x="565" y="10" width="110" height="30" rx="8" fill="#F8FAFC" stroke="#CBD5E1" stroke-width="1.5" />
  <text x="620.0" y="25.0" text-anchor="middle" dominant-baseline="central" font-size="11" fill="#333" font-weight="500">区块链</text>
  <rect x="765" y="10" width="110" height="30" rx="8" fill="#F8FAFC" stroke="#CBD5E1" stroke-width="1.5" />
  <text x="820.0" y="25.0" text-anchor="middle" dominant-baseline="central" font-size="11" fill="#333" font-weight="500">Webhook</text>
  <line x1="60" y1="45" x2="60" y2="370" stroke="#E2E8F0" stroke-width="1" stroke-dasharray="4" />
  <line x1="230" y1="45" x2="230" y2="370" stroke="#E2E8F0" stroke-width="1" stroke-dasharray="4" />
  <line x1="420" y1="45" x2="420" y2="370" stroke="#E2E8F0" stroke-width="1" stroke-dasharray="4" />
  <line x1="620" y1="45" x2="620" y2="370" stroke="#E2E8F0" stroke-width="1" stroke-dasharray="4" />
  <line x1="820" y1="45" x2="820" y2="370" stroke="#E2E8F0" stroke-width="1" stroke-dasharray="4" />
  <line x1="60" y1="65" x2="230" y2="65" stroke="#94A3B8" stroke-width="1.5" marker-end="url(#ah)" />
  <text x="145.0" y="60" text-anchor="middle" font-size="10" fill="#64748B">POST /nps/withdraw</text>
  <rect x="165" y="80" width="130" height="22" rx="8" fill="#FFF7ED" stroke="#EA580C" stroke-width="1.5" />
  <text x="230.0" y="91.0" text-anchor="middle" dominant-baseline="central" font-size="10" fill="#333" font-weight="500">校验余额,冻结资金</text>
  <line x1="230" y1="115" x2="60" y2="115" stroke="#94A3B8" stroke-width="1.5" marker-end="url(#ah)" />
  <text x="145.0" y="110" text-anchor="middle" font-size="10" fill="#64748B">返回transaction_id</text>
  <line x1="230" y1="140" x2="420" y2="140" stroke="#94A3B8" stroke-width="1.5" marker-end="url(#ah)" />
  <text x="325.0" y="135" text-anchor="middle" font-size="10" fill="#64748B">提交风控审核</text>
  <rect x="355" y="155" width="130" height="22" rx="8" fill="#FFF7ED" stroke="#EA580C" stroke-width="1.5" />
  <text x="420.0" y="166.0" text-anchor="middle" dominant-baseline="central" font-size="10" fill="#333" font-weight="500">AML/KYC+地址白名单</text>
  <rect x="310" y="190" width="220" height="22" rx="8" fill="#F0FDF4" stroke="#16A34A" stroke-width="1.5" />
  <text x="420.0" y="201.0" text-anchor="middle" dominant-baseline="central" font-size="11" fill="#333" font-weight="500">审核通过</text>
  <line x1="420" y1="215" x2="230" y2="215" stroke="#94A3B8" stroke-width="1.5" marker-end="url(#ah)" />
  <text x="325" y="208" text-anchor="middle" font-size="10" fill="#64748B">通过</text>
  <line x1="230" y1="235" x2="620" y2="235" stroke="#94A3B8" stroke-width="1.5" marker-end="url(#ah)" />
  <text x="425" y="228" text-anchor="middle" font-size="10" fill="#64748B">构造交易并广播</text>
  <line x1="620" y1="255" x2="230" y2="255" stroke="#94A3B8" stroke-width="1.5" marker-end="url(#ah)" />
  <text x="425" y="248" text-anchor="middle" font-size="10" fill="#64748B">交易确认</text>
  <rect x="150" y="265" width="160" height="22" rx="8" fill="#F0FDF4" stroke="#16A34A" stroke-width="1.5" />
  <text x="230.0" y="276.0" text-anchor="middle" dominant-baseline="central" font-size="10" fill="#333" font-weight="500">扣减余额,释放冻结</text>
  <line x1="230" y1="295" x2="820" y2="295" stroke="#94A3B8" stroke-width="1.5" marker-end="url(#ah)" />
  <text x="525" y="288" text-anchor="middle" font-size="10" fill="#64748B">推送 transaction.succeeded</text>
  <line x1="820" y1="315" x2="60" y2="315" stroke="#94A3B8" stroke-width="1.5" marker-end="url(#ah)" />
  <text x="440" y="308" text-anchor="middle" font-size="10" fill="#64748B">Webhook回调 ✅</text>
  <rect x="620" y="340" width="200" height="22" rx="8" fill="#FEF2F2" stroke="#DC2626" stroke-width="1.5" />
  <text x="720.0" y="351.0" text-anchor="middle" dominant-baseline="central" font-size="9" fill="#333" font-weight="500">审核拒绝→释放冻结→推送failed</text>
</svg>