<?xml version='1.0' encoding='utf-8'?>
<svg xmlns="http://www.w3.org/2000/svg" width="900" height="380" viewBox="0 0 900 380" font-family="-apple-system, &quot;PingFang SC&quot;, &quot;Microsoft YaHei&quot;, sans-serif">
  <rect width="900" height="380" fill="#fff" rx="8" />
  <defs>
    <marker id="ah" markerWidth="8" markerHeight="6" refX="8" refY="3" orient="auto">
      <polygon points="0 0, 8 3, 0 6" fill="#94A3B8" />
    </marker>
    <marker id="ag" markerWidth="8" markerHeight="6" refX="8" refY="3" orient="auto">
      <polygon points="0 0, 8 3, 0 6" fill="#16A34A" />
    </marker>
    <marker id="ar" markerWidth="8" markerHeight="6" refX="8" refY="3" orient="auto">
      <polygon points="0 0, 8 3, 0 6" fill="#DC2626" />
    </marker>
  </defs>
  <rect x="10" y="10" width="100" height="30" rx="8" fill="#F8FAFC" stroke="#CBD5E1" stroke-width="1.5" />
  <text x="60.0" y="25.0" text-anchor="middle" dominant-baseline="central" font-size="12" fill="#333" font-weight="500">商户</text>
  <rect x="200" y="10" width="100" height="30" rx="8" fill="#F8FAFC" stroke="#CBD5E1" stroke-width="1.5" />
  <text x="250.0" y="25.0" text-anchor="middle" dominant-baseline="central" font-size="12" fill="#333" font-weight="500">NUSDpay</text>
  <rect x="410" y="10" width="100" height="30" rx="8" fill="#F8FAFC" stroke="#CBD5E1" stroke-width="1.5" />
  <text x="460.0" y="25.0" text-anchor="middle" dominant-baseline="central" font-size="12" fill="#333" font-weight="500">超管</text>
  <rect x="650" y="10" width="100" height="30" rx="8" fill="#F8FAFC" stroke="#CBD5E1" stroke-width="1.5" />
  <text x="700.0" y="25.0" text-anchor="middle" dominant-baseline="central" font-size="12" fill="#333" font-weight="500">银行</text>
  <line x1="60" y1="45" x2="60" y2="370" stroke="#E2E8F0" stroke-width="1" stroke-dasharray="4" />
  <line x1="250" y1="45" x2="250" y2="370" stroke="#E2E8F0" stroke-width="1" stroke-dasharray="4" />
  <line x1="460" y1="45" x2="460" y2="370" stroke="#E2E8F0" stroke-width="1" stroke-dasharray="4" />
  <line x1="700" y1="45" x2="700" y2="370" stroke="#E2E8F0" stroke-width="1" stroke-dasharray="4" />
  <line x1="60" y1="60" x2="250" y2="60" stroke="#94A3B8" stroke-width="1.5" marker-end="url(#ah)" />
  <text x="155.0" y="55" text-anchor="middle" font-size="10" fill="#64748B">发起结算</text>
  <rect x="195" y="75" width="110" height="22" rx="8" fill="#FFF7ED" stroke="#EA580C" stroke-width="1.5" />
  <text x="250.0" y="86.0" text-anchor="middle" dominant-baseline="central" font-size="10" fill="#333" font-weight="500">校验余额,冻结资金</text>
  <line x1="250" y1="110" x2="60" y2="110" stroke="#94A3B8" stroke-width="1.5" marker-end="url(#ah)" />
  <text x="155.0" y="105" text-anchor="middle" font-size="10" fill="#64748B">待审核</text>
  <line x1="250" y1="135" x2="460" y2="135" stroke="#94A3B8" stroke-width="1.5" marker-end="url(#ah)" />
  <text x="355.0" y="130" text-anchor="middle" font-size="10" fill="#64748B">通知审核</text>
  <rect x="170" y="160" width="160" height="22" rx="8" fill="#F0FDF4" stroke="#16A34A" stroke-width="1.5" />
  <text x="250.0" y="171.0" text-anchor="middle" dominant-baseline="central" font-size="11" fill="#333" font-weight="500">审核通过 ✓</text>
  <line x1="460" y1="175" x2="250" y2="175" stroke="#94A3B8" stroke-width="1.5" marker-end="url(#ah)" />
  <text x="355" y="170" text-anchor="middle" font-size="10" fill="#64748B">审核通过</text>
  <rect x="195" y="190" width="110" height="22" rx="8" fill="#F0FDF4" stroke="#16A34A" stroke-width="1.5" />
  <text x="250.0" y="201.0" text-anchor="middle" dominant-baseline="central" font-size="10" fill="#333" font-weight="500">NUSD×汇率-服务费=USD</text>
  <line x1="250" y1="225" x2="700" y2="225" stroke="#94A3B8" stroke-width="1.5" marker-end="url(#ah)" />
  <text x="475.0" y="220" text-anchor="middle" font-size="10" fill="#64748B">发起法币汇款</text>
  <line x1="700" y1="250" x2="250" y2="250" stroke="#94A3B8" stroke-width="1.5" marker-end="url(#ah)" />
  <text x="475.0" y="245" text-anchor="middle" font-size="10" fill="#64748B">汇款完成</text>
  <rect x="195" y="265" width="110" height="22" rx="8" fill="#F0FDF4" stroke="#16A34A" stroke-width="1.5" />
  <text x="250.0" y="276.0" text-anchor="middle" dominant-baseline="central" font-size="10" fill="#333" font-weight="500">扣减NUSD余额</text>
  <line x1="250" y1="300" x2="60" y2="300" stroke="#94A3B8" stroke-width="1.5" marker-end="url(#ah)" />
  <text x="155.0" y="295" text-anchor="middle" font-size="10" fill="#64748B">结算完成 ✅</text>
  <rect x="560" y="330" width="130" height="22" rx="8" fill="#FEF2F2" stroke="#DC2626" stroke-width="1.5" />
  <text x="625.0" y="341.0" text-anchor="middle" dominant-baseline="central" font-size="11" fill="#333" font-weight="500">审核驳回</text>
  <line x1="460" y1="345" x2="250" y2="345" stroke="#94A3B8" stroke-width="1.5" marker-end="url(#ah)" />
  <text x="355" y="338" text-anchor="middle" font-size="10" fill="#64748B">释放冻结NUSD</text>
  <line x1="250" y1="360" x2="60" y2="360" stroke="#94A3B8" stroke-width="1.5" marker-end="url(#ah)" />
  <text x="155" y="355" text-anchor="middle" font-size="10" fill="#64748B">结算已驳回 ❌</text>
</svg>