<?xml version='1.0' encoding='utf-8'?>
<svg xmlns="http://www.w3.org/2000/svg" width="800" height="320" viewBox="0 0 800 320" font-family="-apple-system, &quot;PingFang SC&quot;, &quot;Microsoft YaHei&quot;, sans-serif">
  <rect width="800" height="320" fill="#fff" rx="8" />
  <defs>
    <marker id="ah" markerWidth="8" markerHeight="6" refX="8" refY="3" orient="auto">
      <polygon points="0 0, 8 3, 0 6" fill="#94A3B8" />
    </marker>
    <marker id="ag" markerWidth="8" markerHeight="6" refX="8" refY="3" orient="auto">
      <polygon points="0 0, 8 3, 0 6" fill="#16A34A" />
    </marker>
    <marker id="ar" markerWidth="8" markerHeight="6" refX="8" refY="3" orient="auto">
      <polygon points="0 0, 8 3, 0 6" fill="#DC2626" />
    </marker>
  </defs>
  <rect x="10" y="10" width="100" height="30" rx="8" fill="#F8FAFC" stroke="#CBD5E1" stroke-width="1.5" />
  <text x="60.0" y="25.0" text-anchor="middle" dominant-baseline="central" font-size="12" fill="#333" font-weight="500">操作人员</text>
  <rect x="230" y="10" width="100" height="30" rx="8" fill="#F8FAFC" stroke="#CBD5E1" stroke-width="1.5" />
  <text x="280.0" y="25.0" text-anchor="middle" dominant-baseline="central" font-size="12" fill="#333" font-weight="500">NUSDpay</text>
  <rect x="480" y="10" width="100" height="30" rx="8" fill="#F8FAFC" stroke="#CBD5E1" stroke-width="1.5" />
  <text x="530.0" y="25.0" text-anchor="middle" dominant-baseline="central" font-size="12" fill="#333" font-weight="500">审核人员</text>
  <line x1="60" y1="45" x2="60" y2="310" stroke="#E2E8F0" stroke-width="1" stroke-dasharray="4" />
  <line x1="280" y1="45" x2="280" y2="310" stroke="#E2E8F0" stroke-width="1" stroke-dasharray="4" />
  <line x1="530" y1="45" x2="530" y2="310" stroke="#E2E8F0" stroke-width="1" stroke-dasharray="4" />
  <line x1="60" y1="65" x2="280" y2="65" stroke="#94A3B8" stroke-width="1.5" marker-end="url(#ah)" />
  <text x="170.0" y="60" text-anchor="middle" font-size="10" fill="#64748B">发起划转</text>
  <rect x="225" y="80" width="110" height="22" rx="8" fill="#FFF7ED" stroke="#EA580C" stroke-width="1.5" />
  <text x="280.0" y="91.0" text-anchor="middle" dominant-baseline="central" font-size="10" fill="#333" font-weight="500">校验余额,冻结资金</text>
  <line x1="280" y1="115" x2="60" y2="115" stroke="#94A3B8" stroke-width="1.5" marker-end="url(#ah)" />
  <text x="170.0" y="110" text-anchor="middle" font-size="10" fill="#64748B">待审核</text>
  <line x1="280" y1="140" x2="530" y2="140" stroke="#94A3B8" stroke-width="1.5" marker-end="url(#ah)" />
  <text x="405.0" y="135" text-anchor="middle" font-size="10" fill="#64748B">通知审核</text>
  <rect x="200" y="165" width="160" height="22" rx="8" fill="#F0FDF4" stroke="#16A34A" stroke-width="1.5" />
  <text x="280.0" y="176.0" text-anchor="middle" dominant-baseline="central" font-size="11" fill="#333" font-weight="500">审核通过</text>
  <line x1="530" y1="180" x2="280" y2="180" stroke="#94A3B8" stroke-width="1.5" marker-end="url(#ah)" />
  <text x="405" y="172" text-anchor="middle" font-size="10" fill="#64748B">通过</text>
  <rect x="200" y="195" width="160" height="22" rx="8" fill="#F0FDF4" stroke="#16A34A" stroke-width="1.5" />
  <text x="280.0" y="206.0" text-anchor="middle" dominant-baseline="central" font-size="10" fill="#333" font-weight="500">执行划转(扣减→增加)</text>
  <line x1="280" y1="225" x2="60" y2="225" stroke="#94A3B8" stroke-width="1.5" marker-end="url(#ah)" />
  <text x="170" y="218" text-anchor="middle" font-size="10" fill="#64748B">划转完成 ✅</text>
  <rect x="200" y="255" width="160" height="22" rx="8" fill="#FEF2F2" stroke="#DC2626" stroke-width="1.5" />
  <text x="280.0" y="266.0" text-anchor="middle" dominant-baseline="central" font-size="11" fill="#333" font-weight="500">审核拒绝</text>
  <line x1="530" y1="270" x2="280" y2="270" stroke="#94A3B8" stroke-width="1.5" marker-end="url(#ah)" />
  <text x="405" y="262" text-anchor="middle" font-size="10" fill="#64748B">拒绝</text>
  <rect x="200" y="285" width="160" height="22" rx="8" fill="#FEF2F2" stroke="#DC2626" stroke-width="1.5" />
  <text x="280.0" y="296.0" text-anchor="middle" dominant-baseline="central" font-size="10" fill="#333" font-weight="500">释放冻结资金</text>
  <line x1="280" y1="305" x2="60" y2="305" stroke="#94A3B8" stroke-width="1.5" marker-end="url(#ah)" />
  <text x="170" y="298" text-anchor="middle" font-size="10" fill="#64748B">划转已拒绝 ❌</text>
</svg>