<svg xmlns="http://www.w3.org/2000/svg" viewBox="0 0 1280 338" aria-label="NUSD PAY legacy lockup (reverse · white on cobalt)" shape-rendering="geometricPrecision">
  <title>NUSD PAY · legacy corporate lockup · white on cobalt</title>
  <rect x="0" y="0" width="1280" height="338" fill="#1f32d6"/>
  <g transform="translate(0,338) scale(0.1,-0.1)" fill="#ffffff" stroke="none">
    <path d="M4510 3366 c-306 -56 -480 -245 -480 -522 0 -196 90 -335 274 -424 45 -21 162 -62 261 -90 229 -65 278 -83 342 -126 68 -47 103 -113 103 -196 0 -73 -17 -114 -70 -172 -62 -67 -127 -90 -260 -89 -120 0 -170 16 -237 77 -38 34 -76 102 -87 158 l-6 27 -161 3 c-89 2 -163 -1 -166 -5 -11 -19 22 -154 53 -217 129 -256 525 -377 866 -264 187 62 332 216 369 392 7 34 9 96 6 154 -4 85 -10 106 -41 171 -72 150 -200 229 -522 321 -219 63 -291 94 -350 151 -116 112 -70 304 91 377 41 18 68 22 145 22 83 0 103 -3 156 -28 77 -35 118 -77 149 -152 l24 -59 167 -3 167 -2 -7 52 c-21 155 -133 306 -279 378 -45 22 -109 47 -142 55 -84 22 -273 27 -365 11z"/>
    <path d="M12 3348 c-9 -9 -12 -228 -12 -924 0 -816 2 -914 16 -928 13 -14 50 -16 248 -16 188 0 236 3 245 14 9 10 12 137 11 468 0 249 3 468 6 486 4 21 12 32 21 30 8 -2 157 -219 332 -483 175 -264 326 -488 335 -497 14 -16 41 -18 265 -18 191 0 251 3 259 13 8 10 -67 130 -306 492 -175 264 -358 542 -407 617 -50 76 -182 277 -294 448 l-204 310 -251 0 c-183 0 -255 -3 -264 -12z"/>
    <path d="M1232 3348 c-9 -9 -12 -78 -12 -250 l0 -239 245 -369 c134 -204 251 -370 259 -370 8 0 17 7 20 16 10 26 5 1176 -4 1202 -9 22 -10 22 -253 22 -176 0 -246 -3 -255 -12z"/>
    <path d="M8120 2431 l0 -931 185 0 185 0 0 354 0 353 228 6 c257 6 332 20 462 84 139 68 247 208 279 361 41 199 -20 407 -157 533 -75 68 -153 110 -267 141 -75 20 -107 22 -497 26 l-418 4 0 -931z m798 604 c109 -33 166 -117 166 -250 1 -94 -24 -157 -81 -204 -62 -51 -114 -61 -324 -61 l-189 0 0 265 0 265 188 0 c141 0 202 -4 240 -15z"/>
    <path d="M10071 3207 c-30 -83 -90 -251 -133 -372 -44 -121 -122 -337 -173 -480 -51 -143 -140 -393 -199 -555 -58 -162 -106 -296 -106 -297 0 -2 89 -2 197 -1 l197 3 60 175 61 175 369 0 369 0 61 -177 61 -178 199 0 c185 0 198 1 191 18 -4 9 -22 60 -40 112 -18 52 -73 208 -123 345 -50 138 -152 421 -227 630 -75 209 -167 463 -203 565 l-67 185 -220 2 -220 3 -54 -153z m389 -617 c56 -162 112 -325 125 -362 14 -38 21 -68 17 -68 -28 -2 -517 1 -519 3 -2 3 227 670 252 735 5 15 7 15 15 2 4 -8 54 -148 110 -310z"/>
    <path d="M11170 3352 c0 -4 39 -82 86 -172 143 -275 225 -431 269 -515 23 -44 91 -174 151 -290 l109 -210 5 -330 5 -330 185 0 185 0 5 330 5 330 199 380 c246 469 416 800 416 808 0 4 -92 7 -205 7 l-206 0 -33 -72 c-37 -79 -233 -499 -311 -666 -27 -56 -52 -99 -55 -95 -4 5 -94 194 -201 421 l-194 412 -207 0 c-115 0 -208 -4 -208 -8z"/>
    <path d="M2232 2678 l3 -673 23 -70 c49 -146 157 -282 282 -352 198 -113 484 -131 711 -47 243 90 385 275 419 546 6 48 10 328 10 675 l0 593 -155 0 -154 0 -3 -652 c-3 -651 -3 -653 -25 -709 -30 -72 -61 -114 -121 -159 -72 -54 -146 -74 -272 -75 -84 0 -118 5 -172 23 -82 28 -158 93 -194 165 -51 100 -54 133 -54 795 l0 612 -150 0 -151 0 3 -672z"/>
    <path d="M5680 2426 l0 -926 348 0 c257 0 373 4 447 15 402 61 668 283 767 640 19 69 22 105 22 265 0 158 -3 196 -22 262 -49 180 -104 279 -217 393 -126 128 -246 195 -440 246 -86 23 -107 24 -497 27 l-408 3 0 -925z m798 658 c117 -23 214 -75 298 -159 121 -120 177 -275 178 -495 1 -355 -155 -580 -454 -655 -46 -12 -131 -18 -287 -22 l-223 -6 0 677 0 676 205 0 c147 0 228 -4 283 -16z"/>
    <path d="M1460 1160 c0 -45 248 -342 400 -479 423 -379 934 -603 1514 -661 152 -16 524 -7 661 15 227 36 471 104 636 175 102 45 254 121 314 158 28 17 67 41 87 52 91 49 293 214 424 344 137 138 329 376 321 399 -3 9 -76 13 -252 15 l-248 2 -96 -97 c-363 -369 -811 -583 -1343 -644 -136 -15 -478 -7 -608 16 -370 62 -712 210 -1005 433 -33 26 -117 101 -186 169 l-126 123 -246 0 c-239 0 -247 -1 -247 -20z"/>
  </g>
</svg>
