<?xml version="1.0" encoding="UTF-8"?>
<svg id="_图层_1" data-name="图层 1" xmlns="http://www.w3.org/2000/svg" viewBox="0 0 806.89 374.71">
  <defs>
    <style>
      .cls-1 {
        fill: #1f32d6;
      }
    </style>
  </defs>
  <path class="cls-1" d="M643.3,244.29c1.76,0,2.83,1.97,1.86,3.44-52.92,79.6-142.96,126.99-241.71,126.99s-188.79-47.38-241.71-126.99c-.97-1.47,.1-3.44,1.86-3.44h51.59c1.27,0,2.48,.56,3.31,1.52,45.29,52.17,112.25,82.5,184.96,82.5s139.67-30.33,184.96-82.5c.84-.96,2.04-1.52,3.31-1.52h51.59Z"/>
  <path class="cls-1" d="M135.33,6.19V56.17c0,.87,.26,1.72,.73,2.44l53.26,80.41c1.21,1.83,4.05,.97,4.05-1.22V6.19c0-2.44-1.98-4.42-4.42-4.42h-49.21c-2.44,0-4.42,1.98-4.42,4.42Z"/>
  <path d="M373.99,2.65V133.85c0,31.98-18.08,47.07-46.8,47.07s-46.47-15.09-46.47-47.07V2.65h-33.77V133.25c0,52.42,36.73,77.28,79.95,77.28s80.83-24.86,80.83-77.28V2.65h-33.74Z"/>
  <path d="M481.47,57.43c0-19.84,15.09-29.3,34.63-28.73,21.32,.6,33.48,13.33,34.65,27.25h37.32c-2.96-35.22-30.8-55.95-70.18-55.95-42.05,0-70.78,22.5-70.78,58.63,0,75.8,109.27,43.53,109.27,93.28,0,17.48-13.33,30.21-37.01,30.21s-35.25-13.63-36.73-30.5h-36.13c0,36.42,31.69,58.91,72.86,58.91,45.9,0,71.07-29.61,71.07-60.39,0-75.22-108.96-46.21-108.96-92.7Z"/>
  <path d="M697.63,2.65h-67.22V208.45h67.22c66.03,0,109.25-38.78,109.25-102.16S763.66,2.65,697.63,2.65Zm0,178.26h-33.48V30.19h33.48c48.55,0,74.6,29.04,74.6,76.11s-26.05,74.63-74.6,74.63Z"/>
  <path class="cls-1" d="M193.09,207.1l-57.76-87.2-1.33-2.01L59.36,3.78c-.82-1.26-2.21-2.01-3.69-2.01H4.42C1.99,1.77,0,3.76,0,6.19V206.11c0,2.45,1.99,4.42,4.42,4.42H53.63c2.43,0,4.42-1.97,4.42-4.42V101.21c0-2.19,2.85-3.05,4.04-1.22l71.93,108.57c.82,1.22,2.19,1.97,3.67,1.97h53.54c1.77,0,2.83-1.97,1.86-3.43Z"/>
</svg>
